<svg width="88" height="89" viewBox="0 0 88 89" fill="none" xmlns="http://www.w3.org/2000/svg">
<g filter="url(#filter0_d_1_47)">
<rect x="23" y="18.7837" width="41.7571" height="41.7571" rx="20.8785" fill="#E3B873"/>
<rect x="19" y="14.7837" width="49.7571" height="49.7571" rx="24.8785" stroke="white" stroke-width="8"/>
</g>
<path d="M38.4708 45.5354C37.4988 45.5354 36.6168 45.2774 35.8248 44.7614C35.0328 44.2454 34.4028 43.4954 33.9348 42.5114C33.4788 41.5154 33.2508 40.3334 33.2508 38.9654C33.2508 37.5974 33.4788 36.4214 33.9348 35.4374C34.4028 34.4414 35.0328 33.6854 35.8248 33.1694C36.6168 32.6534 37.4988 32.3954 38.4708 32.3954C39.4428 32.3954 40.3248 32.6534 41.1168 33.1694C41.9088 33.6854 42.5328 34.4414 42.9888 35.4374C43.4568 36.4214 43.6908 37.5974 43.6908 38.9654C43.6908 40.3334 43.4568 41.5154 42.9888 42.5114C42.5328 43.4954 41.9088 44.2454 41.1168 44.7614C40.3248 45.2774 39.4428 45.5354 38.4708 45.5354ZM38.4708 45.1754C39.8508 45.1754 40.5408 43.1054 40.5408 38.9654C40.5408 34.8254 39.8508 32.7554 38.4708 32.7554C37.0908 32.7554 36.4008 34.8254 36.4008 38.9654C36.4008 43.1054 37.0908 45.1754 38.4708 45.1754ZM45.0394 44.4554C45.0394 43.7474 45.1774 43.1054 45.4534 42.5294C45.7414 41.9414 46.0894 41.4314 46.4974 40.9994C46.9054 40.5674 47.4394 40.0574 48.0994 39.4694C48.7114 38.9294 49.1914 38.4794 49.5394 38.1194C49.8874 37.7474 50.1814 37.3334 50.4214 36.8774C50.6614 36.4094 50.7814 35.9054 50.7814 35.3654C50.7814 34.5734 50.5894 33.9554 50.2054 33.5114C49.8214 33.0674 49.3234 32.8454 48.7114 32.8454C48.3634 32.8454 48.0094 32.8934 47.6494 32.9894L47.2714 33.1154V35.9954L47.0374 36.0494C46.8454 36.0734 46.6834 36.0854 46.5514 36.0854C46.1434 36.0854 45.8134 35.9654 45.5614 35.7254C45.3214 35.4734 45.2014 35.1434 45.2014 34.7354C45.2014 34.3514 45.3454 33.9794 45.6334 33.6194C45.9334 33.2594 46.3714 32.9654 46.9474 32.7374C47.5354 32.5094 48.2434 32.3954 49.0714 32.3954C50.6914 32.3954 51.8914 32.7194 52.6714 33.3674C53.4514 34.0154 53.8414 34.9214 53.8414 36.0854C53.8414 36.8174 53.6494 37.4474 53.2654 37.9754C52.8934 38.5034 52.4314 38.9414 51.8794 39.2894C51.3394 39.6374 50.6134 40.0334 49.7014 40.4774C48.9334 40.8494 48.3094 41.1794 47.8294 41.4674C47.3614 41.7434 46.9234 42.0794 46.5154 42.4754C46.1194 42.8714 45.8374 43.3214 45.6694 43.8254H52.3294C52.4134 43.1774 52.6174 42.6374 52.9414 42.2054C53.0734 42.0014 53.2294 41.8214 53.4094 41.6654H53.9494V45.2654H45.0394V44.4554Z" fill="white"/>
<defs>
<filter id="filter0_d_1_47" x="0" y="0.783691" width="87.757" height="87.7571" filterUnits="userSpaceOnUse" color-interpolation-filters="sRGB">
<feFlood flood-opacity="0" result="BackgroundImageFix"/>
<feColorMatrix in="SourceAlpha" type="matrix" values="0 0 0 0 0 0 0 0 0 0 0 0 0 0 0 0 0 0 127 0" result="hardAlpha"/>
<feOffset dy="5"/>
<feGaussianBlur stdDeviation="7.5"/>
<feColorMatrix type="matrix" values="0 0 0 0 0.890196 0 0 0 0 0.721569 0 0 0 0 0.45098 0 0 0 0.15 0"/>
<feBlend mode="normal" in2="BackgroundImageFix" result="effect1_dropShadow_1_47"/>
<feBlend mode="normal" in="SourceGraphic" in2="effect1_dropShadow_1_47" result="shape"/>
</filter>
</defs>
</svg>
