<svg width="88" height="89" viewBox="0 0 88 89" fill="none" xmlns="http://www.w3.org/2000/svg">
<g filter="url(#filter0_d_1_51)">
<rect x="23" y="18.7837" width="41.7571" height="41.7571" rx="20.8785" fill="#E3B873"/>
<rect x="19" y="14.7837" width="49.7571" height="49.7571" rx="24.8785" stroke="white" stroke-width="8"/>
</g>
<path d="M38.2361 44.916C37.2641 44.916 36.3821 44.658 35.5901 44.142C34.7981 43.626 34.1681 42.876 33.7001 41.892C33.2441 40.896 33.0161 39.714 33.0161 38.346C33.0161 36.978 33.2441 35.802 33.7001 34.818C34.1681 33.822 34.7981 33.066 35.5901 32.55C36.3821 32.034 37.2641 31.776 38.2361 31.776C39.2081 31.776 40.0901 32.034 40.8821 32.55C41.6741 33.066 42.2981 33.822 42.7541 34.818C43.2221 35.802 43.4561 36.978 43.4561 38.346C43.4561 39.714 43.2221 40.896 42.7541 41.892C42.2981 42.876 41.6741 43.626 40.8821 44.142C40.0901 44.658 39.2081 44.916 38.2361 44.916ZM38.2361 44.556C39.6161 44.556 40.3061 42.486 40.3061 38.346C40.3061 34.206 39.6161 32.136 38.2361 32.136C36.8561 32.136 36.1661 34.206 36.1661 38.346C36.1661 42.486 36.8561 44.556 38.2361 44.556ZM48.5846 44.916C47.7566 44.916 47.0486 44.802 46.4606 44.574C45.8846 44.346 45.4466 44.052 45.1466 43.692C44.8586 43.332 44.7146 42.96 44.7146 42.576C44.7146 42.168 44.8346 41.844 45.0746 41.604C45.3266 41.352 45.6566 41.226 46.0646 41.226C46.1606 41.226 46.2566 41.238 46.3526 41.262C46.4486 41.274 46.5146 41.28 46.5506 41.28L46.7846 41.316V44.196C46.7966 44.196 46.9226 44.244 47.1626 44.34C47.4746 44.424 47.8286 44.466 48.2246 44.466C49.0646 44.466 49.7066 44.214 50.1506 43.71C50.6066 43.194 50.8346 42.426 50.8346 41.406C50.8346 40.362 50.6126 39.576 50.1686 39.048C49.7366 38.52 49.1486 38.256 48.4046 38.256H47.5046V37.806H48.4046C48.9446 37.806 49.3946 37.566 49.7546 37.086C50.1146 36.606 50.2946 35.916 50.2946 35.016C50.2946 34.116 50.1086 33.426 49.7366 32.946C49.3646 32.466 48.8906 32.226 48.3146 32.226C48.0026 32.226 47.7026 32.274 47.4146 32.37C47.3786 32.382 47.2586 32.424 47.0546 32.496V35.376L46.8206 35.43C46.6286 35.454 46.4666 35.466 46.3346 35.466C45.9266 35.466 45.5966 35.346 45.3446 35.106C45.1046 34.854 44.9846 34.524 44.9846 34.116C44.9846 33.744 45.1286 33.378 45.4166 33.018C45.7046 32.658 46.1246 32.364 46.6766 32.136C47.2406 31.896 47.9066 31.776 48.6746 31.776C49.6826 31.776 50.5346 31.926 51.2306 32.226C51.9386 32.514 52.4666 32.904 52.8146 33.396C53.1746 33.888 53.3546 34.428 53.3546 35.016C53.3546 35.7 53.1806 36.246 52.8326 36.654C52.4846 37.05 52.0286 37.368 51.4646 37.608C50.9126 37.824 50.2826 37.95 49.5746 37.986V38.076C50.3666 38.112 51.0866 38.25 51.7346 38.49C53.1746 39.066 53.8946 40.038 53.8946 41.406C53.8946 42.462 53.4566 43.314 52.5806 43.962C51.7166 44.598 50.3846 44.916 48.5846 44.916Z" fill="white"/>
<defs>
<filter id="filter0_d_1_51" x="0" y="0.783691" width="87.757" height="87.757" filterUnits="userSpaceOnUse" color-interpolation-filters="sRGB">
<feFlood flood-opacity="0" result="BackgroundImageFix"/>
<feColorMatrix in="SourceAlpha" type="matrix" values="0 0 0 0 0 0 0 0 0 0 0 0 0 0 0 0 0 0 127 0" result="hardAlpha"/>
<feOffset dy="5"/>
<feGaussianBlur stdDeviation="7.5"/>
<feColorMatrix type="matrix" values="0 0 0 0 0.890196 0 0 0 0 0.721569 0 0 0 0 0.45098 0 0 0 0.15 0"/>
<feBlend mode="normal" in2="BackgroundImageFix" result="effect1_dropShadow_1_51"/>
<feBlend mode="normal" in="SourceGraphic" in2="effect1_dropShadow_1_51" result="shape"/>
</filter>
</defs>
</svg>
