<svg width="88" height="89" viewBox="0 0 88 89" fill="none" xmlns="http://www.w3.org/2000/svg">
<g filter="url(#filter0_d_1_55)">
<rect x="23" y="18.7837" width="41.7571" height="41.7571" rx="20.8785" fill="#E3B873"/>
<rect x="19" y="14.7837" width="49.7571" height="49.7571" rx="24.8785" stroke="white" stroke-width="8"/>
</g>
<path d="M38.1042 45.916C37.1322 45.916 36.2502 45.658 35.4582 45.142C34.6662 44.626 34.0362 43.876 33.5682 42.892C33.1122 41.896 32.8842 40.714 32.8842 39.346C32.8842 37.978 33.1122 36.802 33.5682 35.818C34.0362 34.822 34.6662 34.066 35.4582 33.55C36.2502 33.034 37.1322 32.776 38.1042 32.776C39.0762 32.776 39.9582 33.034 40.7502 33.55C41.5422 34.066 42.1662 34.822 42.6222 35.818C43.0902 36.802 43.3242 37.978 43.3242 39.346C43.3242 40.714 43.0902 41.896 42.6222 42.892C42.1662 43.876 41.5422 44.626 40.7502 45.142C39.9582 45.658 39.0762 45.916 38.1042 45.916ZM38.1042 45.556C39.4842 45.556 40.1742 43.486 40.1742 39.346C40.1742 35.206 39.4842 33.136 38.1042 33.136C36.7242 33.136 36.0342 35.206 36.0342 39.346C36.0342 43.486 36.7242 45.556 38.1042 45.556ZM48.3628 45.646V45.376L49.6228 45.016V42.316H44.4928L44.1328 41.776L50.8828 32.866H52.5928V41.506H54.4828V42.316H52.5928V45.016L53.8528 45.376V45.646H48.3628ZM45.1228 41.506H49.6228V35.566L45.1228 41.506Z" fill="white"/>
<defs>
<filter id="filter0_d_1_55" x="0" y="0.783691" width="87.757" height="87.757" filterUnits="userSpaceOnUse" color-interpolation-filters="sRGB">
<feFlood flood-opacity="0" result="BackgroundImageFix"/>
<feColorMatrix in="SourceAlpha" type="matrix" values="0 0 0 0 0 0 0 0 0 0 0 0 0 0 0 0 0 0 127 0" result="hardAlpha"/>
<feOffset dy="5"/>
<feGaussianBlur stdDeviation="7.5"/>
<feColorMatrix type="matrix" values="0 0 0 0 0.890196 0 0 0 0 0.721569 0 0 0 0 0.45098 0 0 0 0.15 0"/>
<feBlend mode="normal" in2="BackgroundImageFix" result="effect1_dropShadow_1_55"/>
<feBlend mode="normal" in="SourceGraphic" in2="effect1_dropShadow_1_55" result="shape"/>
</filter>
</defs>
</svg>
